<?xml version="1.0" encoding="utf-8"?>
<svg xmlns="http://www.w3.org/2000/svg" id="amity_logo_svg" viewBox="0 0 498.8 98.1">
  <style>
    .svg-logo-amity{fill:#000000;}
    .svg-logo-web{fill:#e94e1a;}
  </style>
  <path id="XMLID_53_" d="M0 63.2V63c0-12.8 9.8-18.8 23.7-18.8 5.9 0 10.2 1 14.4 2.4v-1c0-6.9-4.3-10.8-12.6-10.8-6.4 0-10.9 1.2-16.3 3.2L5.1 25.4c6.5-2.9 12.8-4.7 22.8-4.7 9.1 0 15.7 2.4 19.9 6.6 4.4 4.4 6.4 10.9 6.4 18.8v34.1H38v-6.4c-4.1 4.5-9.7 7.5-17.8 7.5C9.1 81.3 0 74.9 0 63.2zm38.3-3.8v-3c-2.9-1.3-6.6-2.2-10.7-2.2-7.1 0-11.5 2.9-11.5 8.1v.2c0 4.5 3.7 7.1 9.1 7.1 7.9.1 13.1-4.2 13.1-10.2z" class="svg-logo-amity"/>
  <path id="XMLID_56_" d="M61.6 21.3h16.7v8.3c3.8-4.9 8.9-9.4 17.3-9.4 7.7 0 13.5 3.4 16.6 9.3 5.2-6 11.3-9.3 19.3-9.3 12.4 0 19.9 7.5 19.9 21.6v38.3h-16.7V47.3c0-7.9-3.5-12-9.8-12-6.3 0-10.1 4.1-10.1 12v32.8H98.1V47.3c0-7.9-3.5-12-9.8-12-6.3 0-10.1 4.1-10.1 12v32.8H61.6V21.3z" class="svg-logo-amity"/>
  <path id="XMLID_58_" d="M159.3 0h17.6v14.8h-17.6V0zm.4 21.3h16.7v58.9h-16.7V21.3z" class="svg-logo-amity"/>
  <path id="XMLID_61_" d="M189.4 63.5V35.6h-7V21.3h7v-15H206v15h13.8v14.3H206v25.1c0 3.8 1.6 5.7 5.4 5.7 3.1 0 5.8-.8 8.2-2.1v13.4c-3.5 2.1-7.6 3.4-13.2 3.4-10.1 0-17-4-17-17.6z" class="svg-logo-amity"/>
  <path id="XMLID_63_" d="M265.3 21.3h17.3L260 81.6c-4.5 12-9.3 16.5-19.3 16.5-6 0-10.5-1.5-14.8-4.1l5.6-12.1c2.2 1.3 4.9 2.3 7.1 2.3 2.9 0 4.4-.9 5.8-3.8l-23.1-59.1H239l13.4 40.1 12.9-40.1z" class="svg-logo-amity"/>
  <path id="XMLID_65_" d="M284 21.3h17l9.4 35.7 11.1-35.9h14.4l11.2 36 9.7-35.8h16.6L355 80.6h-15l-11.3-36.1-11.5 36.1h-14.9L284 21.3z" class="svg-logo-web"/>
  <path id="XMLID_67_" d="M372.3 51.1v-.2c0-16.8 12-30.6 29.1-30.6 19.7 0 28.7 15.3 28.7 32 0 1.3-.1 2.9-.2 4.4h-41c1.6 7.6 6.9 11.5 14.4 11.5 5.6 0 9.7-1.8 14.3-6l9.6 8.5c-5.5 6.8-13.4 11-24 11-17.8-.2-30.9-12.6-30.9-30.6zm41.5-5c-1-7.5-5.4-12.5-12.4-12.5-6.9 0-11.4 4.9-12.7 12.5h25.1z" class="svg-logo-web"/>
  <path id="XMLID_70_" d="M453.7 72.5v7.7H437V0h16.7v29.8c4.1-5.5 9.7-9.6 18.3-9.6 13.7 0 26.8 10.8 26.8 30.4v.2c0 19.7-12.8 30.4-26.8 30.4-8.9.1-14.4-4-18.3-8.7zm28.4-21.7v-.2c0-9.8-6.6-16.3-14.4-16.3-7.8 0-14.3 6.5-14.3 16.3v.2c0 9.8 6.5 16.3 14.3 16.3 7.8 0 14.4-6.4 14.4-16.3z" class="svg-logo-web"/>
</svg>